<svg xmlns="http://www.w3.org/2000/svg" xmlns:xlink="http://www.w3.org/1999/xlink" viewBox="0 0 20.22 18.5"><defs><style>.cls-1,.cls-4{fill:none;}.cls-2{clip-path:url(#clip-path);}.cls-3{fill:#fff;}.cls-4{stroke:#6d7379;stroke-miterlimit:10;}</style><clipPath id="clip-path" transform="translate(0)"><rect class="cls-1" width="20.22" height="18.5"/></clipPath></defs><title>Asset 6</title><g id="Layer_2" data-name="Layer 2"><g id="Layer_1-2" data-name="Layer 1"><g class="cls-2"><path class="cls-3" d="M17.24,11a7,7,0,1,1-7-7,7,7,0,0,1,7,7" transform="translate(0)"/><circle class="cls-4" cx="10.23" cy="11" r="7"/><path class="cls-3" d="M2.18,14H2A1.51,1.51,0,0,1,.5,12.5V9.18A1.5,1.5,0,0,1,2,7.68h.18a1.5,1.5,0,0,1,1.5,1.5V12.5A1.51,1.51,0,0,1,2.18,14" transform="translate(0)"/><rect class="cls-4" x="0.5" y="7.68" width="3.18" height="6.32" rx="1.5"/><path class="cls-3" d="M18.22,14h-.17a1.5,1.5,0,0,1-1.5-1.5V9.18a1.5,1.5,0,0,1,1.5-1.5h.17a1.5,1.5,0,0,1,1.5,1.5V12.5a1.5,1.5,0,0,1-1.5,1.5" transform="translate(0)"/><rect class="cls-4" x="16.55" y="7.68" width="3.18" height="6.32" rx="1.5"/><path class="cls-4" d="M18.24,9.89V8.5a8,8,0,1,0-16,0V9.89" transform="translate(0)"/></g></g></g></svg>