<svg xmlns="http://www.w3.org/2000/svg" viewBox="0 0 15.72 15.72"><defs><style>.cls-1{fill:none;stroke:#6d7379;stroke-miterlimit:10;}.cls-2{fill:#6d7379;}</style></defs><title>Asset 5</title><g id="Layer_2" data-name="Layer 2"><g id="Layer_1-2" data-name="Layer 1"><path class="cls-1" d="M15.22,7.86A7.36,7.36,0,1,1,7.86.5,7.37,7.37,0,0,1,15.22,7.86Z"/><path class="cls-2" d="M10.44,3.83l-.15.76a3.15,3.15,0,0,0-1.57-.34,2.82,2.82,0,0,0-1.94.68,3.41,3.41,0,0,0-1,1.81H9.86l-.14.58H5.66a4.87,4.87,0,0,0,0,1.08H9.51L9.39,9H5.77a3.26,3.26,0,0,0,1,1.83,2.79,2.79,0,0,0,1.92.67,3.57,3.57,0,0,0,1.57-.32l.07.76a4,4,0,0,1-1.64.28,3.76,3.76,0,0,1-2.52-.86A3.91,3.91,0,0,1,4.9,9H3.82L4,8.4h.88a6.49,6.49,0,0,1,0-1.08h-1L4,6.74h1A4,4,0,0,1,6.23,4.4a3.74,3.74,0,0,1,2.51-.87,4.21,4.21,0,0,1,1.7.3"/></g></g></svg>