<svg xmlns="http://www.w3.org/2000/svg" viewBox="0 0 13.71 19"><defs><style>.cls-1{fill:#fff;}.cls-2,.cls-3{fill:none;stroke:#6d7379;stroke-miterlimit:10;}.cls-3{stroke-linecap:square;}</style></defs><title>Asset 3</title><g id="Layer_2" data-name="Layer 2"><g id="Layer_1-2" data-name="Layer 1"><path class="cls-1" d="M6.85,18.5h0A6.37,6.37,0,0,1,.5,12.15V6.85a6.36,6.36,0,0,1,12.71,0v5.3A6.37,6.37,0,0,1,6.85,18.5"/><path class="cls-2" d="M6.85,18.5h0A6.37,6.37,0,0,1,.5,12.15V6.85a6.36,6.36,0,0,1,12.71,0v5.3A6.37,6.37,0,0,1,6.85,18.5Z"/><rect class="cls-2" x="5.27" y="3.68" width="3.18" height="6.35" rx="1.5"/><line class="cls-3" x1="6.85" y1="3.15" x2="6.85" y2="0.5"/></g></g></svg>