<svg xmlns="http://www.w3.org/2000/svg" xmlns:xlink="http://www.w3.org/1999/xlink" viewBox="0 0 27.04 18.5"><defs><style>.cls-1,.cls-4{fill:none;}.cls-2{clip-path:url(#clip-path);}.cls-3{fill:#fff;}.cls-4{stroke:#6d7379;stroke-miterlimit:10;}</style><clipPath id="clip-path" transform="translate(0)"><rect class="cls-1" width="27.04" height="18.5"/></clipPath></defs><title>Asset 4</title><g id="Layer_2" data-name="Layer 2"><g id="Layer_1-2" data-name="Layer 1"><g class="cls-2"><path class="cls-3" d="M22.53,4.5a4,4,0,1,1-4-4,4,4,0,0,1,4,4" transform="translate(0)"/><circle class="cls-4" cx="18.53" cy="4.5" r="4"/><path class="cls-3" d="M26.5,18a8,8,0,0,0-15.94,0Z" transform="translate(0)"/><path class="cls-4" d="M26.5,18a8,8,0,0,0-15.94,0Z" transform="translate(0)"/><path class="cls-3" d="M12.51,4.5a4,4,0,1,1-4-4,4,4,0,0,1,4,4" transform="translate(0)"/><circle class="cls-4" cx="8.51" cy="4.5" r="4"/><path class="cls-3" d="M16.48,18A8,8,0,0,0,.53,18Z" transform="translate(0)"/><path class="cls-4" d="M16.48,18A8,8,0,0,0,.53,18Z" transform="translate(0)"/></g></g></g></svg>